/* XPM */
static char * top_right_active_xpm[] = {
"4 26 2 1",
" 	c None",
".	c #DFD7CF",
".   ",
"..  ",
"... ",
"....",
"....",
"....",
"....",
"....",
"....",
"....",
"....",
"....",
"....",
"....",
"....",
"....",
"....",
"....",
"....",
"....",
"....",
"....",
"....",
"....",
"....",
"...."};
