/* XPM */
static char * top_left_inactive_xpm[] = {
"9 26 2 1",
" 	c None",
".	c #DFD7CF",
"    .....",
"   ......",
"  .......",
" ........",
".........",
".........",
".........",
".........",
".........",
".........",
".........",
".........",
".........",
".........",
".........",
".........",
".........",
".........",
".........",
".........",
".........",
".........",
".........",
".........",
".........",
"........."};
